<svg width="35" height="35" viewBox="0 0 35 35" fill="none" xmlns="http://www.w3.org/2000/svg">
<path d="M33.2104 1.79059C32.6429 1.22291 31.969 0.772598 31.2274 0.465365C30.4857 0.158132 29.6908 0 28.8881 0C28.0853 0 27.2904 0.158132 26.5488 0.465365C25.8071 0.772598 25.1333 1.22291 24.5657 1.79059L2.94705 23.4115C2.31661 24.0415 1.88162 24.8403 1.69441 25.7116L0.0279787 33.487C-0.0159678 33.6912 -0.00804127 33.9031 0.0510339 34.1035C0.110109 34.3038 0.21845 34.4862 0.366157 34.6339C0.513865 34.7816 0.696231 34.8899 0.896594 34.949C1.09696 35.008 1.30893 35.016 1.51314 34.972L9.28901 33.3057C10.1604 33.1185 10.9592 32.6836 11.5893 32.0531L33.2104 10.4335C34.3563 9.28717 35 7.73277 35 6.11203C35 4.49128 34.3563 2.93688 33.2104 1.79059ZM26.3347 3.55817C27.0182 2.91177 27.927 2.55749 28.8677 2.57068C29.8085 2.58386 30.7069 2.96346 31.3721 3.62876C32.0373 4.29406 32.4167 5.19257 32.4297 6.13324C32.4426 7.07391 32.0881 7.98253 31.4415 8.66589L30.3164 9.79094L25.2083 4.68446L26.3347 3.55817ZM23.4393 6.45204L28.5474 11.5598L9.82282 30.2868C9.53308 30.5764 9.1658 30.7761 8.7652 30.8618L2.8758 32.1244L4.13844 26.2366C4.22418 25.8361 4.42388 25.4688 4.7135 25.1791L23.4393 6.45204Z" fill="#161618"/>
</svg>
