<svg width="40" height="33" viewBox="0 0 40 33" fill="none" xmlns="http://www.w3.org/2000/svg">
<path d="M0 16.1115L15.1667 31.2782C15.4659 31.5774 15.8211 31.8147 16.2119 31.9766C16.6028 32.1385 17.0217 32.2218 17.4448 32.2218C17.8679 32.2218 18.2868 32.1385 18.6777 31.9766C19.0686 31.8147 19.4237 31.5774 19.7229 31.2782C20.0221 30.9791 20.2594 30.6239 20.4213 30.233C20.5832 29.8422 20.6665 29.4232 20.6665 29.0001C20.6665 28.5771 20.5832 28.1581 20.4213 27.7673C20.2594 27.3764 20.0221 27.0212 19.7229 26.7221L12.3345 19.3336H36.7778C37.6324 19.3336 38.452 18.9942 39.0563 18.3899C39.6605 17.7856 40 16.966 40 16.1115C40 15.2569 39.6605 14.4373 39.0563 13.8331C38.452 13.2288 37.6324 12.8893 36.7778 12.8893L12.3345 12.8893L19.7229 5.50088C20.0232 5.20233 20.2614 4.84737 20.424 4.45642C20.5866 4.06546 20.6703 3.64622 20.6703 3.2228C20.6703 2.79938 20.5866 2.38014 20.424 1.98918C20.2614 1.59823 20.0232 1.24327 19.7229 0.944723C19.4239 0.645237 19.0688 0.407644 18.6779 0.245535C18.287 0.0834236 17.868 -1.52588e-05 17.4448 -1.52588e-05C17.0216 -1.52588e-05 16.6026 0.0834236 16.2117 0.245535C15.8208 0.407644 15.4657 0.645237 15.1667 0.944723L0 16.1115Z" fill="#D9D9D9"/>
</svg>
