<svg width="40" height="33" viewBox="0 0 40 33" fill="none" xmlns="http://www.w3.org/2000/svg">
<path d="M0 16.1115L15.1667 31.2783C15.4659 31.5774 15.8211 31.8147 16.2119 31.9766C16.6028 32.1385 17.0217 32.2219 17.4448 32.2219C17.8679 32.2219 18.2868 32.1385 18.6777 31.9766C19.0686 31.8147 19.4237 31.5774 19.7229 31.2783C20.0221 30.9791 20.2594 30.6239 20.4213 30.2331C20.5832 29.8422 20.6665 29.4233 20.6665 29.0002C20.6665 28.5771 20.5832 28.1582 20.4213 27.7673C20.2594 27.3764 20.0221 27.0213 19.7229 26.7221L12.3345 19.3337H36.7778C37.6324 19.3337 38.452 18.9942 39.0563 18.3899C39.6605 17.7856 40 16.9661 40 16.1115C40 15.2569 39.6605 14.4374 39.0563 13.8331C38.452 13.2288 37.6324 12.8893 36.7778 12.8893L12.3345 12.8893L19.7229 5.50091C20.0232 5.20236 20.2614 4.8474 20.424 4.45645C20.5866 4.06549 20.6703 3.64625 20.6703 3.22283C20.6703 2.79941 20.5866 2.38017 20.424 1.98921C20.2614 1.59826 20.0232 1.2433 19.7229 0.944754C19.4239 0.645267 19.0688 0.407675 18.6779 0.245565C18.287 0.0834541 17.868 1.52588e-05 17.4448 1.52588e-05C17.0216 1.52588e-05 16.6026 0.0834541 16.2117 0.245565C15.8208 0.407675 15.4657 0.645267 15.1667 0.944754L0 16.1115Z" fill="#D9D9D9"/>
</svg>
